<?xml version="1.0" encoding="UTF-8"?>
<svg width="58px" height="54px" viewBox="0 0 58 54" version="1.1" xmlns="http://www.w3.org/2000/svg" xmlns:xlink="http://www.w3.org/1999/xlink">
    <!-- Generator: Sketch 48.1 (47250) - http://www.bohemiancoding.com/sketch -->
    <title>star_big_gray</title>
    <desc>Created with Sketch.</desc>
    <defs></defs>
    <g id="Page-1" stroke="none" stroke-width="1" fill="none" fill-rule="evenodd">
        <path d="M57.8673619,20.4322579 C57.5500755,19.4750413 56.6999979,18.7782746 55.677934,18.6376917 L38.9201106,16.2602448 L31.4202325,1.46213906 C30.963268,0.566384501 30.0252895,0 28.9988123,0 C27.972335,0 27.0343565,0.566384501 26.577392,1.46213906 L19.0811388,16.2602448 L2.31606568,18.6376917 C1.29537615,18.7795292 0.446980314,19.4760707 0.130262637,20.4322579 C-0.183633066,21.3862382 0.0798708004,22.4311813 0.811740203,23.134705 L12.9478407,34.6545481 L10.0950596,50.9186872 C9.9191808,51.9074708 10.3356139,52.9076719 11.1687357,53.4974733 C12.0018575,54.0872748 13.1066476,54.1640107 14.0171805,53.6953191 L29.0096869,46.0118911 L44.0021933,53.6953191 C44.9136795,54.1541957 46.0127356,54.073187 46.843033,53.4859278 C47.6733304,52.8986687 48.0930558,51.9054618 47.9279391,50.9186872 L45.0679082,34.6545481 L57.2040087,23.134705 C57.9264466,22.4257423 58.1823827,21.3830797 57.8673619,20.4322579 Z" id="star_big_gray" fill="#E5E5E5" fill-rule="nonzero"></path>
    </g>
</svg>