<?xml version="1.0" encoding="UTF-8"?>
<svg width="24px" height="22px" viewBox="0 0 24 22" version="1.1" xmlns="http://www.w3.org/2000/svg" xmlns:xlink="http://www.w3.org/1999/xlink">
    <!-- Generator: Sketch 48.1 (47250) - http://www.bohemiancoding.com/sketch -->
    <title>star_small_gray</title>
    <desc>Created with Sketch.</desc>
    <defs></defs>
    <g id="Page-1" stroke="none" stroke-width="1" fill="none" fill-rule="evenodd" opacity="0.98999995">
        <path d="M23.9451153,8.32425321 C23.8138243,7.93427608 23.4620681,7.65040816 23.0391451,7.59313366 L16.1048734,6.62454417 L13.0014755,0.595686285 C12.8123867,0.230749241 12.4242577,0 11.9995085,0 C11.5747593,0 11.1866303,0.230749241 10.9975415,0.595686285 L7.89564362,6.62454417 L0.958372005,7.59313366 C0.536017716,7.65091931 0.184957371,7.93469546 0.053901781,8.32425321 C-0.0759860963,8.71291188 0.0330499864,9.13862942 0.335892498,9.42525018 L5.35772717,14.1185196 L4.17726604,20.7446503 C4.10448861,21.1474881 4.27680577,21.5549774 4.62154582,21.7952669 C4.96628586,22.0355564 5.4234404,22.0668192 5.80021261,21.8758708 L12.0040084,18.7455853 L18.2078041,21.8758708 C18.5849708,22.0628205 19.0397527,22.0298169 19.383324,21.7905632 C19.7268953,21.5513095 19.9005748,21.1466696 19.8322507,20.7446503 L18.6487896,14.1185196 L23.6706243,9.42525018 C23.9695641,9.13641353 24.0754687,8.71162507 23.9451153,8.32425321 Z" id="star_small_gray" fill="#E5E5E5" fill-rule="nonzero"></path>
    </g>
</svg>