<?xml version="1.0" encoding="UTF-8"?>
<svg width="30px" height="28px" viewBox="0 0 30 28" version="1.1" xmlns="http://www.w3.org/2000/svg" xmlns:xlink="http://www.w3.org/1999/xlink">
    <!-- Generator: Sketch 48.1 (47250) - http://www.bohemiancoding.com/sketch -->
    <title>star_red3</title>
    <desc>Created with Sketch.</desc>
    <defs></defs>
    <g id="Page-1" stroke="none" stroke-width="1" fill="none" fill-rule="evenodd" opacity="0.98999995">
        <path d="M29.9313941,10.5945041 C29.7672804,10.0981696 29.3275851,9.73688312 28.7989314,9.6639883 L20.1310917,8.43123804 L16.2518444,0.758146181 C16.0154834,0.293680852 15.5303222,0 14.9993856,0 C14.4684491,0 13.9832879,0.293680852 13.7469269,0.758146181 L9.86955453,8.43123804 L1.19796501,9.6639883 C0.670022145,9.73753366 0.231196714,10.0987033 0.0673772263,10.5945041 C-0.0949826203,11.0891606 0.041312483,11.6309829 0.419865622,11.995773 L6.69715897,17.9690249 L5.22158254,26.4022823 C5.13061076,26.9149849 5.34600721,27.4336076 5.77693227,27.7394306 C6.20785733,28.0452536 6.7793005,28.0850426 7.25026576,27.8420173 L15.0050105,23.8580176 L22.7597552,27.8420173 C23.2312135,28.0799533 23.7996908,28.0379488 24.229155,27.7334441 C24.6586192,27.4289393 24.8757185,26.9139431 24.7903133,26.4022823 L23.310987,17.9690249 L29.5882804,11.995773 C29.9619552,11.6281627 30.0943359,11.0875228 29.9313941,10.5945041 Z" id="star_red3" fill="#E5E5E5" fill-rule="nonzero"></path>
    </g>
</svg>